{
  "source": "C:\\Users\\Peter\\Desktop\\stuff\\MIUN\\quantitative_research\\video_compression\\videos\\BVI-HD\\BVI-HD_CDVL_videos\\ORIG\\Rowing_1920x1080_30fps.mp4",
  "output": "C:\\Users\\Peter\\Desktop\\stuff\\MIUN\\quantitative_research\\video_compression\\compressed_videos\\BVI-HD\\vp9\\4\\Rowing_1920x1080_30fps_vp9.webm",
  "codec": "vp9",
  "ok": "Input #0, mov,mp4,m4a,3gp,3g2,mj2, from 'C:\\Users\\Peter\\Desktop\\stuff\\MIUN\\quantitative_research\\video_compression\\videos\\BVI-HD\\BVI-HD_CDVL_videos\\ORIG\\Rowing_1920x1080_30fps.mp4':\n  Metadata:\n    major_brand     : isom\n    minor_version   : 512\n    compatible_brands: isomiso2avc1mp41\n    encoder         : Lavf54.28.101\n  Duration: 00:00:05.00, start: 0.000000, bitrate: 259220 kb/s\n  Stream #0:0[0x1](und): Video: h264 (High 4:4:4 Predictive) (avc1 / 0x31637661), yuv420p(progressive), 1920x1080, 259216 kb/s, 30 fps, 30 tbr, 30 tbn (default)\n    Metadata:\n      handler_name    : VideoHandler\n      vendor_id       : [0][0][0][0]\n[out#0/webm @ 000001ea9c059700] Codec AVOption b:a (set bitrate (in bits/s)) has not been used for any stream. The most likely reason is either wrong type (e.g. a video option with no video streams) or that it is a private option of some decoder which was not actually used for any stream.\nStream mapping:\n  Stream #0:0 -> #0:0 (h264 (native) -> vp9 (libvpx-vp9))\nPress [q] to stop, [?] for help\n[libvpx-vp9 @ 000001ea9cac0440] v1.15.2-100-g40561f514\nOutput #0, webm, to 'C:\\Users\\Peter\\Desktop\\stuff\\MIUN\\quantitative_research\\video_compression\\compressed_videos\\BVI-HD\\vp9\\4\\Rowing_1920x1080_30fps_vp9.webm':\n  Metadata:\n    major_brand     : isom\n    minor_version   : 512\n    compatible_brands: isomiso2avc1mp41\n    encoder         : Lavf62.3.100\n  Stream #0:0(und): Video: vp9, yuv420p(tv, progressive), 1920x1080, q=2-31, 4000 kb/s, 30 fps, 1k tbn (default)\n    Metadata:\n      encoder         : Lavc62.11.100 libvpx-vp9\n      handler_name    : VideoHandler\n      vendor_id       : [0][0][0][0]\n    Side data:\n      cpb: bitrate max/min/avg: 0/0/0 buffer size: 4000000 vbv_delay: N/A\nframe=    0 fps=0.0 q=0.0 size=       0KiB time=N/A bitrate=N/A speed=N/A elapsed=0:00:00.53    \nframe=    2 fps=1.7 q=23.0 size=       1KiB time=00:00:00.06 bitrate=  76.1kbits/s speed=0.0574x elapsed=0:00:01.16    \nframe=    4 fps=2.4 q=50.0 size=       1KiB time=00:00:00.13 bitrate=  38.0kbits/s speed=0.0797x elapsed=0:00:01.67    \nframe=    8 fps=3.7 q=61.0 size=       1KiB time=00:00:00.26 bitrate=  19.0kbits/s speed=0.122x elapsed=0:00:02.18    \nframe=   10 fps=3.7 q=61.0 size=       1KiB time=00:00:00.33 bitrate=  15.2kbits/s speed=0.123x elapsed=0:00:02.70    \nframe=   13 fps=4.0 q=61.0 size=       1KiB time=00:00:00.43 bitrate=  11.7kbits/s speed=0.134x elapsed=0:00:03.22    \nframe=   16 fps=4.3 q=61.0 size=       1KiB time=00:00:00.53 bitrate=   9.5kbits/s speed=0.142x elapsed=0:00:03.75    \nframe=   19 fps=4.4 q=61.0 size=       1KiB time=00:00:00.63 bitrate=   8.0kbits/s speed=0.148x elapsed=0:00:04.29    \nframe=   21 fps=4.3 q=37.0 size=       1KiB time=00:00:00.70 bitrate=   7.2kbits/s speed=0.145x elapsed=0:00:04.83    \nframe=   23 fps=4.3 q=61.0 size=       1KiB time=00:00:00.76 bitrate=   6.6kbits/s speed=0.143x elapsed=0:00:05.35    \nframe=   26 fps=4.4 q=61.0 size=       1KiB time=00:00:00.86 bitrate=   5.9kbits/s speed=0.147x elapsed=0:00:05.87    \nframe=   29 fps=4.5 q=62.0 size=       1KiB time=00:00:00.96 bitrate=   5.2kbits/s speed=0.151x elapsed=0:00:06.42    \nframe=   31 fps=4.5 q=38.0 size=       1KiB time=00:00:01.03 bitrate=   4.9kbits/s speed=0.149x elapsed=0:00:06.94    \nframe=   34 fps=4.6 q=62.0 size=       1KiB time=00:00:01.13 bitrate=   4.5kbits/s speed=0.152x elapsed=0:00:07.47    \nframe=   36 fps=4.5 q=62.0 size=       1KiB time=00:00:01.20 bitrate=   4.2kbits/s speed=0.15x elapsed=0:00:08.00    \nframe=   39 fps=4.6 q=62.0 size=       1KiB time=00:00:01.30 bitrate=   3.9kbits/s speed=0.153x elapsed=0:00:08.51    \nframe=   40 fps=4.4 q=62.0 size=       1KiB time=00:00:01.33 bitrate=   3.8kbits/s speed=0.148x elapsed=0:00:09.03    \nframe=   43 fps=4.5 q=61.0 size=       1KiB time=00:00:01.43 bitrate=   3.5kbits/s speed=0.15x elapsed=0:00:09.55    \nframe=   45 fps=4.5 q=61.0 size=       1KiB time=00:00:01.50 bitrate=   3.4kbits/s speed=0.149x elapsed=0:00:10.07    \nframe=   47 fps=4.4 q=48.0 size=       1KiB time=00:00:01.56 bitrate=   3.2kbits/s speed=0.148x elapsed=0:00:10.60    \nframe=   50 fps=4.5 q=61.0 size=       1KiB time=00:00:01.66 bitrate=   3.0kbits/s speed=0.15x elapsed=0:00:11.12    \nframe=   52 fps=4.5 q=60.0 size=       1KiB time=00:00:01.73 bitrate=   2.9kbits/s speed=0.149x elapsed=0:00:11.64    \nframe=   55 fps=4.5 q=60.0 size=       1KiB time=00:00:01.83 bitrate=   2.8kbits/s speed=0.151x elapsed=0:00:12.17    \nframe=   58 fps=4.6 q=60.0 size=       1KiB time=00:00:01.93 bitrate=   2.6kbits/s speed=0.152x elapsed=0:00:12.69    \nframe=   60 fps=4.5 q=60.0 size=       1KiB time=00:00:02.00 bitrate=   2.5kbits/s speed=0.151x elapsed=0:00:13.24    \nframe=   63 fps=4.6 q=61.0 size=       1KiB time=00:00:02.10 bitrate=   2.4kbits/s speed=0.153x elapsed=0:00:13.75    \nframe=   65 fps=4.5 q=47.0 size=       1KiB time=00:00:02.16 bitrate=   2.3kbits/s speed=0.152x elapsed=0:00:14.28    \nframe=   68 fps=4.6 q=60.0 size=       1KiB time=00:00:02.26 bitrate=   2.2kbits/s speed=0.153x elapsed=0:00:14.80    \nframe=   70 fps=4.6 q=60.0 size=       1KiB time=00:00:02.33 bitrate=   2.2kbits/s speed=0.152x elapsed=0:00:15.31    \nframe=   73 fps=4.6 q=60.0 size=       1KiB time=00:00:02.43 bitrate=   2.1kbits/s speed=0.154x elapsed=0:00:15.82    \nframe=   76 fps=4.6 q=60.0 size=       1KiB time=00:00:02.53 bitrate=   2.0kbits/s speed=0.155x elapsed=0:00:16.35    \nframe=   78 fps=4.6 q=60.0 size=       1KiB time=00:00:02.60 bitrate=   2.0kbits/s speed=0.154x elapsed=0:00:16.87    \nframe=   81 fps=4.7 q=59.0 size=       1KiB time=00:00:02.70 bitrate=   1.9kbits/s speed=0.155x elapsed=0:00:17.39    \nframe=   84 fps=4.7 q=59.0 size=       1KiB time=00:00:02.80 bitrate=   1.8kbits/s speed=0.156x elapsed=0:00:17.92    \nframe=   87 fps=4.7 q=59.0 size=       1KiB time=00:00:02.90 bitrate=   1.7kbits/s speed=0.157x elapsed=0:00:18.44    \nframe=   89 fps=4.7 q=45.0 size=       1KiB time=00:00:02.96 bitrate=   1.7kbits/s speed=0.156x elapsed=0:00:18.96    \nframe=   92 fps=4.7 q=60.0 size=       1KiB time=00:00:03.06 bitrate=   1.7kbits/s speed=0.157x elapsed=0:00:19.48    \nframe=   94 fps=4.7 q=60.0 size=       1KiB time=00:00:03.13 bitrate=   1.6kbits/s speed=0.157x elapsed=0:00:20.00    \nframe=   97 fps=4.7 q=59.0 size=       1KiB time=00:00:03.23 bitrate=   1.6kbits/s speed=0.158x elapsed=0:00:20.51    \nframe=  100 fps=4.8 q=59.0 size=       1KiB time=00:00:03.33 bitrate=   1.5kbits/s speed=0.158x elapsed=0:00:21.04    \nframe=  103 fps=4.8 q=59.0 size=       1KiB time=00:00:03.43 bitrate=   1.5kbits/s speed=0.159x elapsed=0:00:21.56    \nframe=  106 fps=4.8 q=59.0 size=       1KiB time=00:00:03.53 bitrate=   1.4kbits/s speed=0.16x elapsed=0:00:22.07    \nframe=  109 fps=4.8 q=59.0 size=       1KiB time=00:00:03.63 bitrate=   1.4kbits/s speed=0.161x elapsed=0:00:22.61    \nframe=  112 fps=4.8 q=58.0 size=       1KiB time=00:00:03.73 bitrate=   1.4kbits/s speed=0.161x elapsed=0:00:23.12    \nframe=  116 fps=4.9 q=58.0 size=       1KiB time=00:00:03.86 bitrate=   1.3kbits/s speed=0.163x elapsed=0:00:23.65    \nframe=  119 fps=4.9 q=43.0 size=       1KiB time=00:00:03.96 bitrate=   1.3kbits/s speed=0.164x elapsed=0:00:24.17    \nframe=  122 fps=4.9 q=59.0 size=       1KiB time=00:00:04.06 bitrate=   1.2kbits/s speed=0.165x elapsed=0:00:24.70    \nframe=  126 fps=5.0 q=58.0 size=       1KiB time=00:00:04.20 bitrate=   1.2kbits/s speed=0.166x elapsed=0:00:25.22    \nframe=  126 fps=4.9 q=58.0 size=       1KiB time=00:00:04.20 bitrate=   1.2kbits/s speed=0.163x elapsed=0:00:25.75    \nframe=  126 fps=4.8 q=58.0 size=       1KiB time=00:00:04.20 bitrate=   1.2kbits/s speed=0.16x elapsed=0:00:26.28    \nframe=  126 fps=4.7 q=58.0 size=       1KiB time=00:00:04.20 bitrate=   1.2kbits/s speed=0.157x elapsed=0:00:26.82    \nframe=  126 fps=4.6 q=58.0 size=       1KiB time=00:00:04.20 bitrate=   1.2kbits/s speed=0.154x elapsed=0:00:27.34    \nframe=  126 fps=4.5 q=58.0 size=       1KiB time=00:00:04.20 bitrate=   1.2kbits/s speed=0.151x elapsed=0:00:27.88    \nframe=  126 fps=4.4 q=58.0 size=       1KiB time=00:00:04.20 bitrate=   1.2kbits/s speed=0.148x elapsed=0:00:28.42    \n[out#0/webm @ 000001ea9c059700] video:2522KiB audio:0KiB subtitle:0KiB other streams:0KiB global headers:0KiB muxing overhead: 0.068663%\nframe=  150 fps=5.2 q=58.0 Lsize=    2523KiB time=00:00:05.00 bitrate=4134.3kbits/s speed=0.173x elapsed=0:00:28.94    \n",
  "seconds": 29.186529874801636,
  "probe_out": {}
}